<svg data-qa="ehl-logo" aria-label="Ehl logo" role="img" fill="none" height="40" width="41" xmlns="http://www.w3.org/2000/svg"><path clip-rule="evenodd" d="M33.047 25.681H8.24V11.733l12.54-7.416 12.268 7.416v13.948zM20.78.106L1.292 11.287v4.04h2.986V29.22h32.516V15.328h3.04v-3.93L20.78.106z" fill="#6F7672" fill-rule="evenodd"/><path clip-rule="evenodd" d="M14.11 17.045h12.974v-3.432H14.11v3.432zM14.11 22.156h12.974v-3.432H14.11v3.432zM23.345 38.932h-.977v-2.49h1.086c.76 0 1.466.442 1.466 1.328 0 .996-.652 1.162-1.575 1.162zm.11-3.43h-2.28v4.373H23.4c1.79 0 2.822-.388 2.822-2.103 0-1.771-1.14-2.27-2.768-2.27zM36 37.112h-1.738v-.664h1.791c.489 0 .706.055.706.332 0 .332-.163.332-.76.332zm.71.936c.814-.11 1.195-.443 1.195-1.162 0-.996-.49-1.384-1.683-1.384h-3.149v4.373h1.194v-1.827h1.14l1.249 1.827h1.303l-1.249-1.827zM14.63 35.502v4.373h1.14v-2.657l2.28 2.657h1.357v-4.373h-1.14v2.712l-2.28-2.712H14.63zM3.438 35.502v4.373h4.288v-.941l-3.094-.055v-3.377H3.438zM8.954 39.875h4.18v-.941h-2.931v-.941h2.443v-.886h-2.443v-.664h2.931v-.94h-4.18v4.372zM27.56 35.502v4.373l4.125-.055v-.886h-2.931v-.941h2.497v-.886h-2.497v-.664h2.931v-.94H27.56zM13.145 32.887l.325-1.55.38 1.55h-.705zm.81-2.391h-.923l-1.086 3.93h.791l.24-.886h.977l.24.886h.846l-1.085-3.93zM7.681 32.987c0 .72-.054.885-.489.885-.38 0-.488-.221-.488-.94v-.942c0-.72.054-.94.543-.94.38 0 .434.11.434.885v1.052zm.6.886c.163-.332.218-.553.218-1.051v-.83c0-.942-.217-1.606-1.303-1.606-.977 0-1.303.554-1.303 1.55v1.052c0 1.328.76 1.383 2.986 1.383l.054-.276-.651-.222zM28.043 33.374c0 .609.38 1.107 1.248 1.107.706 0 1.357-.498 1.357-1.107 0-.941-1.737-1.384-1.737-1.993 0-.221.217-.332.434-.332.326 0 .489.221.652.554l.542-.222c-.054-.553-.434-.996-1.248-.996-.651 0-1.194.332-1.194.996 0 1.107 1.737 1.384 1.737 2.103 0 .277-.163.388-.489.388-.325 0-.543-.221-.651-.609l-.651.11zM23.946 32.986c0 .665-.163.886-.488.886-.434 0-.489-.277-.489-.83v-1.218c0-.498.055-.83.489-.83s.488.388.488.83v1.162zm-.486-2.601c-.814 0-1.303.443-1.303 1.494v1.273c0 .941.271 1.329 1.303 1.329 1.031 0 1.303-.443 1.303-1.495V31.77c0-.997-.272-1.384-1.303-1.384zM35.3 32.986c0 1.163.325 1.495 1.41 1.495.841 0 1.087-.402 1.087-.83v-1.273h-1.14v.608h.38v.443c0 .332-.109.498-.38.498-.543 0-.598-.387-.598-.94V32.1c0-.664.055-1.107.598-1.107.38 0 .597.276.65.664l.544-.221c-.054-.665-.489-1.052-1.249-1.052-1.085 0-1.302.608-1.302 1.439v1.162zM25.102 30.495v2.27c0 1.328.223 1.753 1.363 1.753.869 0 1.188-.48 1.188-1.643v-2.38h-.76v2.27c0 .885-.054 1.106-.488 1.106s-.489-.332-.489-1.162v-2.214h-.814zM32.355 30.496v3.93h.65v-2.657l.924 2.657h.977v-3.93h-.652v2.435l-.868-2.435h-1.032zM9.28 30.495v2.38c0 1.107.108 1.606 1.194 1.606 1.248 0 1.303-.61 1.303-1.716v-2.27h-.76v2.325c0 .775-.109.996-.489.996-.434 0-.489-.221-.489-1.107v-2.214h-.76zM19.152 30.496v3.93h.76v-1.772h.923v1.771h.76v-3.93h-.76v1.495h-.923v-1.494h-.76zM3.383 30.496v3.93h1.954v-.61H4.143V32.71h1.085v-.554H4.143v-1.051h1.194v-.61H3.383zM15.384 30.496v3.93h1.792v-.61h-1.14v-3.32h-.652zM31.047 34.425h.706v-3.93h-.706v3.93z" fill="#6F7672" fill-rule="evenodd"/></svg>