<svg aria-label="Eho logo" data-qa="eho-logo" fill="none" height="40" role="img" width="43" xmlns="http://www.w3.org/2000/svg"><path clip-rule="evenodd" d="M3.834 32.69H5.47v-.546H3.202v3.086h2.342v-.548h-1.71v-.797h1.504v-.547H3.834v-.648zm4.018 1.992l-.31-.292.331-.346.327.305c.085-.16.141-.373.141-.663 0-.864-.49-1.078-.837-1.078-.349 0-.839.215-.839 1.078 0 .864.49 1.078.838 1.078a.75.75 0 00.349-.082zm.811.105l.336.316-.34.35-.365-.35c-.292.174-.61.208-.79.208-.409 0-1.483-.176-1.483-1.625 0-1.447 1.074-1.623 1.482-1.623.409 0 1.483.175 1.483 1.623 0 .508-.134.86-.323 1.101zm2.089.523c.777 0 1.268-.348 1.268-1.16v-2.006h-.658v2.032c0 .374-.18.589-.623.589-.3 0-.55-.188-.55-.62v-2.001h-.657v2.045c.008.309.073.56.24.748.275.305.696.373.98.373zm3.004-2.47h-.01l-.396 1.22h.788l-.382-1.22zm.562 1.752h-1.14l-.214.638h-.678l1.1-3.086h.744l1.086 3.086h-.7l-.198-.638zm3.58.08h-1.535v-2.528h-.645v3.086h2.18v-.559zm2.444.558v-1.385h1.203v1.385h.644v-3.086h-.644v1.168h-1.203v-1.168h-.644v3.086h.644zm3.913-2.622c-.347 0-.837.215-.837 1.078 0 .864.49 1.078.837 1.078.35 0 .84-.214.84-1.078 0-.864-.49-1.078-.84-1.078zm0 2.702c-.406 0-1.481-.175-1.481-1.624 0-1.448 1.075-1.623 1.481-1.623.41 0 1.484.175 1.484 1.623 0 1.45-1.074 1.624-1.484 1.624zm3.293 0c.778 0 1.268-.348 1.268-1.16v-2.006h-.657v2.032c0 .374-.18.589-.623.589-.302 0-.552-.188-.552-.62v-2.001h-.656v2.045c.008.309.072.56.24.748.276.305.696.373.98.373zm3.102-.532c-.562 0-.648-.327-.654-.499h-.617c0 .382.193 1.032 1.318 1.032.271 0 1.216-.081 1.216-1.01 0-.554-.386-.727-.807-.83l-.753-.185c-.128-.03-.325-.08-.325-.322 0-.279.292-.37.536-.37.563 0 .615.328.632.465h.62c-.005-.378-.258-.996-1.204-.996-1.001 0-1.187.605-1.187.95 0 .678.479.789.978.904h.003l.33.078c.327.077.56.143.56.382 0 .328-.341.4-.646.4zm1.793.452h.643v-3.086h-.643v3.086zm3.82-3.086h-.602v2.149h-.01l-1.224-2.15h-.679v3.087h.601v-2.202h.011l1.258 2.202h.644v-3.086zm3.445 1.422H38.42v.52h.717c-.132.623-.606.678-.748.678-.438 0-.898-.218-.898-1.061 0-.79.425-1.108.886-1.108.454 0 .674.387.674.508h.644c-.032-.427-.407-1.04-1.353-1.04-1.039-.005-1.508.79-1.508 1.632 0 1.083.675 1.615 1.418 1.615.556 0 .793-.273.956-.46l.006-.007.065.387h.429v-1.664zM4.547 37.295c-.348 0-.837.215-.837 1.079 0 .863.49 1.08.837 1.08.348 0 .838-.217.838-1.08 0-.864-.49-1.08-.838-1.08zm0 2.705c-.408 0-1.482-.178-1.482-1.626S4.14 36.75 4.547 36.75c.408 0 1.482.176 1.482 1.624C6.03 39.822 4.955 40 4.547 40zm3.249-2.637v.907h.597c.481 0 .481-.343.481-.48 0-.301-.168-.427-.567-.427h-.511zm.738 1.441h-.738v1.113H7.15v-3.086H8.56c.598 0 .958.383.958.989 0 .279-.154.984-.984.984zm2.733-1.441v.907h.598c.48 0 .48-.343.48-.48 0-.301-.168-.427-.567-.427h-.51zm.74 1.441h-.74v1.113h-.644v-3.086h1.41c.597 0 .958.383.958.989 0 .279-.156.984-.985.984zm3.433-1.51c-.35 0-.838.216-.838 1.08 0 .863.489 1.08.838 1.08.347 0 .838-.217.838-1.08 0-.864-.491-1.08-.838-1.08zm0 2.706c-.409 0-1.482-.178-1.482-1.626s1.073-1.624 1.482-1.624c.408 0 1.482.176 1.482 1.624 0 1.448-1.075 1.626-1.482 1.626zm3.236-2.637v.826h.755c.336 0 .498-.116.498-.421 0-.163-.072-.405-.45-.405h-.803zm0 2.555h-.633v-3.086h1.56c.821 0 .97.605.97.872 0 .34-.17.632-.475.734.253.112.39.206.39.784 0 .45 0 .561.138.612v.084h-.714c-.043-.148-.067-.307-.067-.624 0-.421-.027-.584-.504-.584h-.665v1.208zm3.655 0h.644v-2.54h.933v-.547H21.4v.546h.932v2.54zM26.1 40c.779 0 1.268-.35 1.268-1.162V36.83h-.657v2.033c0 .373-.18.59-.623.59-.3 0-.55-.191-.55-.62V36.83h-.656v2.046c.007.309.072.558.24.747.275.304.696.376.978.376zm4.99-3.169h-.603v2.148h-.007l-1.226-2.148h-.679v3.087h.603v-2.202h.007l1.26 2.202h.645V36.83zm1.172 3.087h.646V36.83h-.646v3.087zm2.518 0h.645v-2.54h.933v-.547h-2.508v.546h.93v2.54zm3.369 0h.645V38.76l1.032-1.929h-.73l-.612 1.342-.64-1.342h-.76l1.065 1.921v1.166zM.667 10.232L21.442 0l21.085 10.232v4.806h-2.792v14.418H2.992V15.038H.667v-4.806zm6.821 14.882h27.751V11.937l-13.797-7.13-13.954 7.13v13.177zm7.442-8.527h12.867v-4.65H14.93v4.65zm0 6.67h12.867v-4.653H14.93v4.653z" fill="#6F7672" fill-rule="evenodd"/></svg>